<svg xmlns="http://www.w3.org/2000/svg" version="1.0" width="100.000000px" height="150.000000px" viewBox="0 0 265.000000 312.000000" preserveAspectRatio="xMidYMid meet">
  <rect width="100%" height="100%" fill="#E9ECEF" rx="20" ry="20"/>
  <g transform="translate(0.000000,312.000000) scale(0.100000,-0.100000)" fill="#000000" stroke="none">
    <path d="M0 1560 l0 -1560 1325 0 1325 0 0 1560 0 1560 -1325 0 -1325 0 0 -1560z m2368 -7 l2 -1283 -1034 0 -1034 0 -4 683 c-2 375 -2 953 0 1285 l4 602 1031 -2 1032 -3 3 -1282z"/>
    <path d="M560 2451 l0 -159 93 -7 c50 -3 155 -5 232 -3 l140 3 0 160 0 160 -232 3 -233 2 0 -159z"/>
    <path d="M1645 2568 c-39 -43 -155 -165 -452 -471 l-163 -167 0 65 0 65 -235 0 -235 0 0 -785 0 -785 235 0 235 0 0 361 c0 198 4 359 8 357 5 -1 41 -39 82 -83 40 -44 161 -176 269 -294 108 -118 221 -243 251 -277 l55 -63 218 -1 217 0 0 73 c0 69 -2 75 -31 103 -97 91 -819 895 -819 912 0 4 82 92 183 193 100 102 272 279 382 393 110 114 219 226 243 249 l42 40 0 79 0 78 -224 0 -224 0 -37 -42z"/>
  </g>
</svg>
